PathFileType	4	(X/Y/Z)	C:/Users/opensim2020/Desktop/walking_exp_matlab/subject06_walking20_straight_02.trc	
DataRate	CameraRate	NumFrames	NumMarkers	Units	OrigDataRate	OrigDataStartFrame	OrigNumFrames	
100.00	100.00	7	43	mm	100.00	1307	105	
Frame#	Time	LFHD			RFHD			LBHD			RBHD			C7			T10			CLAV			STRN			RBAK			LSHO			LUPA			LELB			LFRM			LWRA			LWRB			LFIN			RSHO			RUPA			RELB			RFRM			RWRA			RWRB			RFIN			LASI			RASI			LPSI			RPSI			LTHI			LKNE			LTIB			LANK			LHEE			LTOE			RTHI			RKNE			RTIB			RANK			RHEE			RTOE			*39			*40			*41			*42			
		X1	Y1	Z1	X2	Y2	Z2	X3	Y3	Z3	X4	Y4	Z4	X5	Y5	Z5	X6	Y6	Z6	X7	Y7	Z7	X8	Y8	Z8	X9	Y9	Z9	X10	Y10	Z10	X11	Y11	Z11	X12	Y12	Z12	X13	Y13	Z13	X14	Y14	Z14	X15	Y15	Z15	X16	Y16	Z16	X17	Y17	Z17	X18	Y18	Z18	X19	Y19	Z19	X20	Y20	Z20	X21	Y21	Z21	X22	Y22	Z22	X23	Y23	Z23	X24	Y24	Z24	X25	Y25	Z25	X26	Y26	Z26	X27	Y27	Z27	X28	Y28	Z28	X29	Y29	Z29	X30	Y30	Z30	X31	Y31	Z31	X32	Y32	Z32	X33	Y33	Z33	X34	Y34	Z34	X35	Y35	Z35	X36	Y36	Z36	X37	Y37	Z37	X38	Y38	Z38	X39	Y39	Z39	X40	Y40	Z40	X41	Y41	Z41	X42	Y42	Z42	X43	Y43	Z43	

66	0.650	1497.57324	191.04100	1636.18848	1367.06494	201.13318	1617.53064	1510.35669	325.63733	1586.31494	1381.96802	334.61844	1573.17224	1460.98560	332.85474	1421.01404	1456.01660	362.49200	1091.14465	1453.68884	221.38351	1345.59229	1465.21252	178.19795	1170.82043	1394.48743	406.82767	1247.24329	1617.73975	270.32129	1381.10229	1700.43237	236.95445	1187.58093	1720.70239	209.87968	1080.09412	1735.02710	93.41761	990.33496	1681.63513	-26.84047	964.47260	1719.07690	4.25814	913.21344	1718.37280	-84.17855	899.78925	1295.54358	280.90302	1373.19763	1217.84180	371.43085	1192.71008	1202.92969	395.87311	1073.23254	1181.34021	423.49725	956.56659	1199.29602	412.32819	802.44812	1168.47754	468.30270	826.27515	1160.06580	463.26224	741.85168	1568.94531	194.97011	928.81427	1348.94702	179.49400	941.06232	1528.20886	349.19635	959.88855	1360.80261	331.23248	961.79456	1618.38013	316.08093	624.47388	1597.38647	360.85077	464.53540	1596.88782	524.37360	261.91376	1561.18933	628.10352	123.05936	1520.02588	674.60529	130.54970	1550.45776	513.18842	39.18565	1277.49341	148.20059	623.30212	1309.64783	94.69894	512.13385	1300.32556	45.63167	253.61539	1338.55750	-7.43098	73.10009	1382.50378	21.68429	36.81878	1344.02246	-161.47499	86.22826	1443.31458	294.38754	1674.06177									 
67	0.660	1496.21875	176.16855	1635.67480	1365.56995	186.13295	1616.93958	1508.78857	310.89786	1585.72290	1380.27173	319.73486	1572.63232	1459.19336	317.98599	1420.10193	1454.41882	345.95700	1090.30273	1452.00720	205.99921	1345.19836	1463.58777	162.06256	1170.59436	1392.90588	391.09561	1246.09326	1615.89551	255.38042	1380.41467	1698.56226	221.96638	1187.05383	1718.81665	195.92249	1079.40625	1732.81226	79.07864	990.52576	1679.27893	-41.26912	966.15570	1716.37317	-10.87822	914.34222	1715.51025	-99.49455	902.02936	1293.88977	265.65683	1372.72009	1216.16187	355.63388	1191.98181	1201.29089	379.65170	1072.45459	1179.73975	406.90186	955.69940	1197.50720	395.30737	801.78577	1166.88525	451.25629	825.22754	1158.39539	446.21329	740.87982	1567.66528	178.06476	928.30774	1347.83423	162.16168	941.12592	1527.00293	332.55508	959.33850	1359.35681	314.54236	962.01025	1616.67773	299.02692	622.82660	1595.68164	341.99643	462.44745	1595.23315	512.64819	265.62561	1559.95544	621.39697	131.05080	1518.75806	666.93018	140.90076	1549.74170	512.00964	39.36541	1278.75635	129.91685	624.07343	1311.39832	77.21834	513.26056	1301.22729	34.23735	251.92238	1339.55725	-13.28345	71.10948	1385.05200	17.59144	39.91183	1342.03503	-168.50200	72.48563	1441.78540	279.54456	1673.49231									 
68	0.670	1494.83118	161.45047	1635.90503	1364.07385	171.15570	1617.15845	1507.19836	296.11926	1585.53333	1378.58960	304.69977	1572.44324	1457.34180	303.19946	1419.78247	1453.01355	329.45181	1089.65735	1450.36511	190.65726	1345.45483	1461.91296	146.13593	1170.91638	1391.06006	375.49023	1245.02161	1614.13660	240.69124	1380.03821	1696.54907	207.24548	1186.51526	1716.83472	182.30972	1078.70093	1730.60156	65.29536	990.35699	1676.99353	-55.09579	967.10760	1713.90686	-25.28117	914.69037	1712.69360	-113.95876	903.29944	1292.00793	250.24020	1372.62830	1214.26746	339.55389	1191.42603	1199.43652	363.15149	1071.76001	1178.05627	389.78162	954.87561	1196.10950	377.53183	800.79980	1165.41748	433.65848	824.11102	1156.82263	428.04407	739.92902	1566.68689	161.13689	927.93774	1346.86011	144.99519	941.34967	1525.89038	315.70953	958.86700	1357.60815	297.69714	962.48492	1615.04724	280.95520	620.98895	1593.85901	321.89539	460.21323	1593.08459	499.40176	269.81534	1558.05579	612.91394	139.89114	1516.46448	657.09949	152.28049	1548.91565	510.67749	39.97564	1279.30579	112.34640	625.36835	1311.65613	60.37051	514.52515	1300.93420	22.54928	251.98543	1337.88599	-19.67517	72.55985	1383.08472	13.59637	42.61631	1341.28394	-174.24812	63.06980	1440.16333	264.81833	1673.39343									 
69	0.680	1493.40881	146.93474	1637.04883	1362.69128	156.28352	1618.32825	1505.50024	281.39310	1586.07092	1376.87854	289.66351	1573.05005	1455.39294	288.19577	1420.46667	1452.27930	313.15988	1089.55347	1448.59253	175.50201	1346.34546	1460.42676	130.80780	1171.63660	1388.90454	359.99936	1244.31140	1612.71680	226.06549	1380.18176	1694.45667	193.07295	1186.04956	1714.80396	168.92630	1078.11157	1728.10291	52.21328	989.90057	1674.91663	-68.33946	967.14307	1711.51697	-38.78814	914.41437	1709.92273	-127.62561	903.44324	1289.97925	234.70464	1372.99487	1212.17847	323.02121	1191.17725	1197.51111	346.22598	1071.25317	1176.13831	372.52890	954.21210	1194.60938	359.02521	800.43835	1163.85059	415.36057	823.25500	1155.32739	409.17401	739.23145	1565.55310	144.58690	927.83478	1345.89893	128.13698	942.03369	1525.10291	298.86249	958.67963	1356.48486	281.24393	964.35394	1613.10510	261.86166	619.27155	1592.13037	300.23422	458.02997	1590.43481	484.22525	274.40738	1555.69238	602.23254	149.59198	1513.47021	644.45776	164.56903	1547.95898	509.17816	40.68305	1278.69617	95.85615	627.95837	1309.74646	44.40691	517.01764	1298.48071	9.66592	254.48389	1336.60193	-24.16119	71.45505	1381.57593	11.06045	43.87878	1340.08557	-177.64081	57.58699	1438.54980	250.33188	1674.05920									 
70	0.690	1492.02539	132.47546	1638.36853	1361.33325	141.41753	1619.83508	1503.76819	266.74551	1587.21252	1375.22034	274.69189	1574.30334	1453.55066	272.96835	1421.84521	1451.69519	297.32095	1090.18311	1446.97461	160.51767	1347.64063	1458.93042	115.46490	1172.95459	1386.46875	344.72867	1244.65002	1611.36182	211.27562	1380.98254	1692.32654	179.60753	1185.97546	1712.52612	155.75430	1077.85730	1725.98157	39.37545	989.11292	1673.01770	-81.01714	966.27661	1709.22461	-51.27398	913.35205	1707.42163	-140.35811	902.41125	1287.96692	219.09175	1373.77710	1210.14954	305.65549	1191.38220	1195.54590	328.61990	1071.15173	1174.35962	354.19376	953.83630	1193.58411	340.04788	800.15198	1162.29529	396.19910	822.58545	1154.06897	389.38843	738.75201	1564.13806	128.19933	928.13666	1344.70471	111.43707	943.50024	1525.03369	282.08658	958.77698	1356.37036	265.26132	966.77740	1611.04480	241.84407	617.73718	1590.81030	276.85602	455.84454	1587.85352	467.16144	279.57889	1553.10815	589.64581	160.38922	1509.41296	629.22638	177.67302	1546.59033	508.61490	41.05032	1277.47791	79.39197	631.67786	1307.91418	27.91082	520.58911	1296.79028	-1.01641	257.04901	1335.00195	-25.73657	72.01466	1380.35376	9.83703	44.95436	1339.27917	-178.97701	51.76249	1437.03687	235.81946	1675.33167									 
71	0.700	1490.79260	117.86025	1639.54211	1360.07751	126.52722	1621.30652	1502.04858	252.23293	1588.48083	1373.45837	259.66052	1575.88806	1451.65039	257.68481	1423.46960	1451.28162	281.94507	1091.36731	1445.54724	145.63036	1349.07800	1457.58813	100.08648	1174.59802	1383.90662	329.44522	1245.85278	1609.90320	196.31012	1382.27148	1690.14868	166.52588	1186.62012	1709.94519	142.72974	1078.21484	1723.58789	27.29090	988.28168	1671.16846	-92.97608	964.59363	1706.66150	-62.62108	911.61505	1705.17090	-151.83235	900.10168	1286.26123	203.40782	1374.91443	1207.92749	288.76343	1191.69031	1193.66455	310.54803	1071.39136	1172.65527	335.20294	953.85223	1192.40906	319.98785	800.35046	1160.56287	376.19284	822.40216	1152.66272	368.85757	738.45129	1562.29675	110.80935	929.54773	1343.38110	95.24887	946.12128	1525.35388	265.44354	959.01300	1357.05212	249.90720	969.29492	1609.23682	221.08781	616.24097	1590.01880	252.12482	453.86435	1585.20557	448.45078	285.41492	1550.37952	574.89545	171.51045	1504.98303	611.41156	191.32321	1545.72925	507.06143	43.26444	1276.11987	62.78746	635.69580	1306.55847	12.11757	523.59808	1294.73242	-9.10651	258.58505	1334.19788	-27.10320	72.59313	1379.11096	8.73944	45.69803	1339.82214	-180.48190	46.89995	1435.60352	221.02345	1676.73914									 
72	0.710	1489.70483	103.27966	1640.51807	1358.94275	111.57893	1622.60278	1500.41040	237.79659	1589.67261	1371.75671	244.89836	1577.39001	1449.89001	242.74646	1424.81982	1450.67004	266.88071	1092.95886	1444.22632	130.77234	1350.42603	1456.38672	84.70188	1176.23828	1381.47437	314.00339	1247.47620	1608.28015	181.28406	1383.80505	1687.94043	153.35045	1187.69629	1707.02808	129.79117	1079.26880	1720.97083	15.86157	987.45514	1669.31982	-104.33063	962.08295	1704.19348	-73.07333	909.21161	1703.23608	-162.14076	896.61646	1284.82800	187.71869	1376.27771	1205.94983	271.23627	1192.38428	1191.90405	292.19205	1071.94470	1170.87976	315.63870	954.21417	1191.18176	299.32886	800.80908	1158.71118	355.43640	822.22809	1151.31030	347.58310	738.21326	1560.20337	94.69859	930.48993	1342.04004	79.56844	949.42328	1525.75342	249.17680	959.45691	1357.85571	234.99373	971.64435	1607.76624	199.86171	614.71545	1589.56018	226.83304	452.12988	1582.79224	428.14749	291.99731	1547.81128	558.75928	182.99750	1501.71008	592.29663	205.03056	1544.87927	501.62659	48.26429	1274.99292	46.44683	639.47339	1305.23560	-2.40270	525.70831	1293.75513	-16.25964	259.70071	1334.07153	-30.16700	72.66062	1378.44653	7.23566	46.68832	1340.69348	-182.61694	43.67403	1434.22266	206.21019	1678.05237									 
